<?xml version="1.0" standalone="no"?>
<!DOCTYPE svg PUBLIC "-//W3C//DTD SVG 20010904//EN"
 "http://www.w3.org/TR/2001/REC-SVG-20010904/DTD/svg10.dtd">
<svg version="1.0" xmlns="http://www.w3.org/2000/svg"
 width="733.000000pt" height="733.000000pt" viewBox="0 0 733.000000 733.000000"
 preserveAspectRatio="xMidYMid meet">
<metadata>
Created by potrace 1.14, written by Peter Selinger 2001-2017
</metadata>
<g transform="translate(0.000000,733.000000) scale(0.100000,-0.100000)"
fill="#000000" stroke="none">
<path d="M388 3656 l-3 -3625 86 -3 c107 -4 124 -1 109 17 -6 7 -10 39 -8 72
l3 58 90 -5 c153 -7 5925 -3 6013 5 l84 7 -4 -76 c-2 -56 0 -76 10 -76 6 0 12
-6 12 -12 0 -10 2 -10 9 0 6 10 29 13 85 10 42 -1 77 0 79 4 1 5 1 1637 -1
3628 l-2 3620 -3280 0 -3280 0 -2 -3624z m4370 2507 c-592 -2 -1564 -2 -2160
0 -596 1 -111 2 1077 2 1188 0 1675 -1 1083 -2z m-2950 -179 c18 -13 21 -19
11 -30 -10 -13 -14 -12 -30 2 -19 17 -26 44 -11 44 4 0 18 -7 30 -16z m127
-60 c33 -2 921 -3 1973 -4 1523 0 1912 -3 1912 -12 0 -10 -391 -12 -1927 -10
-1061 1 -1935 0 -1943 -4 -13 -4 -12 -7 3 -15 9 -6 15 -14 12 -19 -3 -5 -5
-1077 -5 -2383 0 -2035 -2 -2376 -14 -2386 -9 -8 -16 -8 -20 -2 -4 6 -7 1074
-7 2373 0 1300 -2 2380 -6 2401 -3 22 -11 37 -19 37 -12 0 -14 -373 -14 -2405
0 -2398 0 -2405 -20 -2405 -20 0 -20 7 -20 2426 0 2307 1 2426 18 2419 9 -4
44 -9 77 -11z m-125 -2410 c0 -1588 -3 -2403 -10 -2399 -14 8 -14 4805 0 4805
7 0 10 -802 10 -2406z m4018 2324 c3 -17 -99 -18 -1883 -18 -1268 0 -1892 -3
-1905 -10 -12 -7 -19 -20 -18 -38 0 -15 0 -1080 -1 -2367 l-1 -2340 22 0 c13
0 22 5 21 12 -2 7 -3 1070 -3 2363 l0 2350 1885 3 1885 2 0 -22 0 -23 -1836 0
c-1268 0 -1835 -3 -1832 -10 2 -8 575 -11 1833 -13 l1830 -2 0 -25 0 -25
-1792 -3 -1793 -2 0 -2305 c0 -1527 3 -2305 10 -2305 7 0 11 777 12 2298 l3
2297 1783 3 1782 2 0 -30 0 -30 -1719 0 c-1145 0 -1722 -3 -1726 -10 -4 -7
561 -10 1717 -10 l1723 0 0 -2327 0 -2328 -2152 -3 -2153 -2 0 70 0 70 138 1
c75 0 181 1 235 1 l97 1 -2 2398 -3 2399 1920 -3 c1812 -2 1920 -3 1923 -19z
m-2153 -4930 c1194 0 2202 2 2240 4 l70 3 1 -60 c1 -33 -3 -66 -8 -72 -8 -10
-482 -13 -2308 -13 -2086 0 -2298 1 -2304 16 -8 20 -8 119 0 126 3 3 35 3 72
0 37 -3 1044 -5 2237 -4z m5 -150 c1240 0 2298 3 2351 7 110 9 107 11 101 -77
-3 -47 -7 -57 -25 -62 -12 -3 -1115 -5 -2452 -3 l-2430 2 -6 65 c-3 36 -3 69
-1 74 3 5 50 5 106 1 55 -4 1116 -8 2356 -7z m2618 -208 l-3 -65 -2620 0
-2620 0 -3 65 -3 65 2626 0 2626 0 -3 -65z m-2628 -89 c1438 0 2647 3 2687 7
39 4 76 6 82 4 12 -4 15 -99 5 -126 -6 -15 -259 -16 -2770 -16 l-2764 0 0 68
c0 38 2 71 5 73 2 3 35 2 72 -2 37 -5 1245 -8 2683 -8z m-70 -149 c1814 -1
2837 1 2895 7 68 8 91 8 97 -2 12 -19 9 -102 -4 -120 -12 -16 -196 -17 -2923
-15 l-2910 3 -6 60 c-6 65 4 91 30 78 9 -4 1278 -9 2821 -11z"/>
<path d="M2090 3410 l0 -2350 21 0 c17 0 20 4 15 23 -3 12 -6 1069 -6 2350 0
2062 -2 2327 -15 2327 -13 0 -15 -268 -15 -2350z"/>
<path d="M2168 3389 c-2 -1276 0 -2323 5 -2326 4 -2 10 -2 15 0 11 8 4 4647
-8 4647 -7 0 -11 -795 -12 -2321z"/>
<path d="M2320 3345 c-3 -1248 -2 -2274 2 -2279 4 -5 9 -8 10 -5 2 2 1 1028
-2 2279 l-5 2275 -5 -2270z"/>
<path d="M2390 3333 c0 -1225 -3 -2238 -6 -2250 -5 -17 -2 -23 10 -23 15 0 16
184 16 2244 0 1486 -3 2247 -10 2251 -7 4 -10 -739 -10 -2222z"/>
<path d="M2448 3290 c-3 -1977 -1 -2230 12 -2230 13 0 15 253 12 2230 -1 1465
-5 2230 -12 2230 -7 0 -11 -765 -12 -2230z"/>
<path d="M3845 4690 c-220 -22 -443 -106 -631 -236 -72 -51 -283 -255 -306
-297 -7 -14 -29 -49 -48 -78 -95 -144 -165 -326 -199 -515 -14 -76 -14 -340
-1 -402 6 -26 15 -69 21 -97 22 -102 77 -255 122 -335 109 -198 272 -377 447
-492 67 -44 233 -128 252 -128 8 0 18 -4 23 -8 6 -5 30 -14 55 -21 25 -7 54
-17 65 -21 22 -9 45 -14 185 -35 120 -18 212 -18 320 0 47 7 103 16 125 20 22
4 49 10 60 14 11 5 52 18 90 31 181 57 359 169 525 331 191 186 318 445 370
754 18 106 3 445 -21 470 -5 5 -9 19 -9 31 0 33 -47 171 -85 249 -43 87 -97
176 -153 249 -61 80 -217 232 -282 274 -30 20 -57 40 -60 44 -10 13 -199 106
-263 129 -186 66 -392 90 -602 69z m735 -542 c53 -17 74 -30 118 -76 58 -60
92 -118 92 -156 0 -14 5 -28 10 -31 17 -10 12 -136 -8 -186 -24 -63 -79 -140
-119 -166 -19 -13 -38 -23 -42 -23 -5 0 -15 -7 -22 -16 -22 -27 -60 -36 -154
-35 -80 0 -97 4 -155 32 -57 28 -88 53 -137 113 -7 8 -13 18 -13 21 0 3 -12
24 -26 47 -24 37 -26 51 -26 137 0 91 17 163 40 173 4 1 20 24 35 51 15 26 34
47 41 47 7 0 23 11 36 25 13 14 32 25 42 25 10 0 18 4 18 9 0 13 79 29 145 29
33 0 89 -9 125 -20z"/>
</g>
</svg>
